<svg xmlns="http://www.w3.org/2000/svg" version="1.1" viewBox="-5.0 -10.0 110.0 135.0">
 <path d="m47.996 10.137h39.789c3.0781 0 5.8789 1.2617 7.9023 3.2852 2.0234 2.0273 3.2852 4.8242 3.2852 7.9023v57.352c0 3.0781-1.2617 5.8789-3.2852 7.9023-2.0273 2.0234-4.8242 3.2852-7.9023 3.2852h-39.789c-3.0781 0-5.8789-1.2617-7.9023-3.2852-2.0234-2.0273-3.2852-4.8242-3.2852-7.9023v-57.352c0-3.0781 1.2617-5.8789 3.2852-7.9023 2.0273-2.0234 4.8242-3.2852 7.9023-3.2852zm-18.562 28.109c1.1211-0.57422 2.5039-0.12891 3.0742 0.99609 0.57422 1.125 0.12891 2.5039-0.99609 3.0742-1.4141 0.72266-2.6055 1.832-3.4336 3.1875-0.79688 1.3008-1.2578 2.8398-1.2578 4.4922s0.46094 3.1875 1.2578 4.4922c0.82812 1.3555 2.0195 2.4648 3.4336 3.1875 1.125 0.57422 1.5703 1.9492 0.99609 3.0742-0.57422 1.125-1.9531 1.5703-3.0742 0.99609-2.1758-1.1133-4-2.8086-5.2617-4.875-1.2305-2.0117-1.9375-4.3633-1.9375-6.8789 0-2.5156 0.70703-4.8672 1.9375-6.8789 1.2617-2.0664 3.0859-3.7617 5.2617-4.875zm1.5078 33.23c1.2383 0.25781 2.0352 1.4688 1.7773 2.707-0.25391 1.2383-1.4688 2.0352-2.707 1.7773-1.1211-0.23438-2.1953-0.52734-3.2148-0.87891-1.0391-0.35938-2.0664-0.79297-3.082-1.293-0.375-0.18359-0.76953-0.24219-1.1406-0.18359-0.35938 0.058593-0.71094 0.24219-1.0117 0.53906l-0.75781 0.75781c-1.2617 1.2617-2.9141 1.8906-4.5664 1.8906-1.6523 0-3.3086-0.62891-4.5664-1.8906l-1.1328-1.1328c-1.2617-1.2578-1.8906-2.9141-1.8906-4.5664 0-1.6484 0.62891-3.2969 1.8906-4.5586l0.75781-0.75781c0.29688-0.29688 0.48047-0.65234 0.53906-1.0195 0.058593-0.36719 0.003906-0.76953-0.18359-1.1406-0.26172-0.53125-0.5-1.0586-0.71875-1.5781-0.21875-0.53125-0.42188-1.0742-0.61328-1.625-0.13281-0.39063-0.37109-0.70703-0.67578-0.92578-0.30078-0.21484-0.67969-0.33984-1.0938-0.33984h-1.0664c-1.7773 0-3.3945-0.72656-4.5625-1.8945-1.1719-1.168-1.8945-2.7852-1.8945-4.5625v-1.6055c0-1.7773 0.72656-3.3945 1.8945-4.5625 1.1719-1.1719 2.7852-1.8945 4.5625-1.8945h1.0664c0.41797 0 0.79688-0.12109 1.0938-0.33984 0.30469-0.21875 0.54297-0.53516 0.67578-0.92578 0.1875-0.55078 0.39063-1.0938 0.61328-1.625 0.21484-0.51953 0.45703-1.043 0.71875-1.5781 0.18359-0.375 0.24219-0.76953 0.18359-1.1406-0.058594-0.35938-0.24219-0.71094-0.53906-1.0078l-0.11719-0.125-0.63281-0.63281-0.003906 0.007813c-1.2617-1.2617-1.8906-2.9141-1.8906-4.5664h0.007812c0-1.6523 0.62891-3.3047 1.8789-4.5586l0.007813-0.007813-0.007813-0.007812 1.1367-1.1328c1.2578-1.2617 2.9141-1.8906 4.5664-1.8906 1.6484 0 3.2969 0.62891 4.5586 1.8906l0.76172 0.76172 0.007812-0.007813c0.30078 0.30078 0.65234 0.48438 1.0117 0.53906 0.36719 0.058594 0.76953 0.003906 1.1406-0.18359 1.0117-0.5 2.043-0.93359 3.082-1.2891 1.0195-0.35156 2.0938-0.64844 3.2148-0.88281 1.2383-0.25781 2.4492 0.53516 2.707 1.7773 0.25781 1.2383-0.53516 2.4492-1.7773 2.7109-0.88281 0.18359-1.7734 0.43359-2.6562 0.73828-0.89453 0.30859-1.7422 0.66406-2.543 1.0586-1.2539 0.61719-2.6094 0.80859-3.9023 0.59375-1.3047-0.21484-2.5352-0.82812-3.5195-1.8164l0.007813-0.003906-0.75391-0.75391c-0.35938-0.35938-0.84375-0.54297-1.3281-0.54297-0.48047 0-0.96094 0.18359-1.3203 0.54297l-1.1328 1.1328-0.007812-0.007812c-0.36719 0.36719-0.55078 0.84766-0.55078 1.3242h0.007812c0 0.48047 0.17969 0.95703 0.54297 1.3203l-0.007813 0.007813 0.63281 0.63281 0.125 0.11719c0.98438 0.98437 1.5977 2.2148 1.8164 3.5195 0.21484 1.293 0.023437 2.6484-0.59375 3.9023-0.20312 0.41406-0.40234 0.84766-0.59375 1.3086-0.18359 0.44141-0.35156 0.88672-0.50391 1.3398-0.44922 1.3281-1.2773 2.4258-2.3438 3.1875-1.0664 0.76953-2.3711 1.1953-3.7695 1.1953h-1.0664c-0.51172 0-0.97656 0.21094-1.3164 0.55078s-0.55078 0.80859-0.55078 1.3164v1.6055c0 0.51172 0.21094 0.97656 0.55078 1.3164s0.80859 0.55078 1.3164 0.55078h1.0664c1.3984 0 2.6992 0.43359 3.7695 1.1953 1.0664 0.76562 1.8945 1.8594 2.3438 3.1875 0.15234 0.44922 0.32031 0.89844 0.50391 1.3398 0.1875 0.46094 0.38672 0.89453 0.58984 1.3086 0.61719 1.2539 0.80859 2.6094 0.59375 3.9023-0.21484 1.3008-0.82812 2.5273-1.8164 3.5117l-0.75781 0.75781c-0.36328 0.36328-0.54297 0.84375-0.54297 1.3281 0 0.48047 0.17969 0.96094 0.54297 1.3203l1.1328 1.1328c0.35938 0.36328 0.83984 0.54297 1.3203 0.54297s0.95703-0.17969 1.3203-0.54297l0.75781-0.75781c0.98438-0.98438 2.2148-1.5977 3.5195-1.8164 1.293-0.21484 2.6484-0.023437 3.9023 0.59375 0.80078 0.39453 1.6484 0.75 2.543 1.0586 0.88672 0.30469 1.7773 0.55469 2.6602 0.73828zm21.008 2.3789c-1.2695 0-2.2969-1.0273-2.2969-2.2969 0-1.2695 1.0273-2.2969 2.2969-2.2969h31.883c1.2656 0 2.2969 1.0273 2.2969 2.2969 0 1.2656-1.0273 2.2969-2.2969 2.2969zm0-14.227c-1.2695 0-2.2969-1.0273-2.2969-2.2969s1.0273-2.2969 2.2969-2.2969h31.883c1.2656 0 2.2969 1.0273 2.2969 2.2969 0 1.2656-1.0273 2.2969-2.2969 2.2969zm0-14.227c-1.2695 0-2.2969-1.0273-2.2969-2.2969s1.0273-2.2969 2.2969-2.2969h31.883c1.2656 0 2.2969 1.0273 2.2969 2.2969 0 1.2656-1.0273 2.2969-2.2969 2.2969zm29.707-30.676 12.723 12.723v-6.1289c0-1.8125-0.74219-3.4609-1.9375-4.6562-1.1953-1.1953-2.8438-1.9375-4.6562-1.9375zm12.723 19.215-19.215-19.215h-27.168c-1.8125 0-3.4609 0.74219-4.6562 1.9375-1.1953 1.1953-1.9375 2.8438-1.9375 4.6562v57.352c0 1.8125 0.74219 3.4609 1.9375 4.6562 1.1953 1.1953 2.8438 1.9375 4.6562 1.9375h39.789c1.8125 0 3.4609-0.74219 4.6562-1.9375 1.1953-1.1953 1.9375-2.8438 1.9375-4.6562z"/>
</svg>